<svg xmlns="http://www.w3.org/2000/svg" width="222" height="99" viewBox="0 0 222 99">
    <defs>
        <linearGradient id="a" x1="-12.252%" x2="112.252%" y1="50%" y2="50%">
            <stop offset="0%" stop-color="#CD1F24"/>
            <stop offset="100%" stop-color="#F06E21"/>
        </linearGradient>
    </defs>
    <path fill="url(#a)" fill-rule="evenodd" d="M1361.766 167c2.195 0 3.703 1.553 3.703 3.844 0 1.81-.844 3.072-2.205 3.608-.074.045-.042.123.095.257.675.67 1.487 1.386 2.29 1.61.305.078.611.089.79.089.148 0 .317-.034.455-.09.094.045.126.18.094.269-.39.29-.991.413-1.509.413-1.518 0-2.827-.849-3.808-1.922-.2-.223-.306-.357-.559-.38-1.73-.156-3.112-1.586-3.112-3.776 0-2.212 1.561-3.922 3.766-3.922zm-.084.514c-1.298 0-1.994 1.285-1.994 3.15 0 1.364.453 3.565 2.173 3.565 1.382 0 1.92-1.441 1.92-3.251 0-1.91-.791-3.464-2.1-3.464zM1201.034 167c2.35 0 3.966 1.416 3.966 3.47 0 2.205-1.65 3.53-4.08 3.53-2.27 0-3.92-1.335-3.92-3.45 0-2.002 1.672-3.55 4.034-3.55zm58.23 0c.013.169.097.925.158 1.63-.049.115-.326.136-.446.041-.133-.367-.302-.683-.458-.83-.229-.2-.59-.325-1.18-.325h-.965c-.397 0-.397.02-.397.41v1.838c0 .295.012.316.337.316h.832c.626 0 .77-.074.891-.578l.06-.263c.085-.084.386-.084.446.01-.024.337-.036.715-.036 1.114 0 .4.012.778.036 1.114-.06.095-.361.106-.446.011l-.06-.263c-.12-.504-.265-.588-.891-.588h-.832c-.325 0-.337.01-.337.326v1.25c0 .483.048.82.193.999.156.189.385.273 1.265.273 1.048 0 1.457-.031 2.12-1.22.097-.115.398-.073.446.053-.048.547-.337 1.398-.506 1.682a95.483 95.483 0 0 0-2.483-.031h-1.866c-.579 0-1.169.01-2.073.031-.096-.063-.096-.315 0-.368l.567-.074c.51-.068.604-.128.613-.942v-4.081c0-.957-.071-1.02-.613-1.114l-.302-.053c-.108-.063-.096-.305.025-.368.565.021 1.156.032 1.734.032h2.554c.771 0 1.458-.01 1.615-.032zm28.77 0c2.35 0 3.966 1.416 3.966 3.47 0 2.205-1.65 3.53-4.08 3.53-2.27 0-3.92-1.335-3.92-3.45 0-2.002 1.672-3.55 4.034-3.55zm35.867 0c.126.062.126.258.034.362l-.33.052c-.466.072-.693.196-.693.744 0 2.13.022 3.247.09 4.55.024.475.07.724.513.775l.364.042c.09.082.09.32-.023.361a39.192 39.192 0 0 0-1.57-.03c-.512 0-1.138.01-1.684.03-.136-.051-.148-.29-.034-.361l.342-.042c.523-.062.523-.186.523-.817l-.023-2.688v-1.179h-.023c-.842 1.654-1.752 3.381-2.503 5.129a.39.39 0 0 1-.227.072.648.648 0 0 1-.296-.062c-.444-1.282-1.843-3.846-2.48-5.19h-.023a32.661 32.661 0 0 0-.068 1.664c-.011.672-.023 1.706-.023 2.327 0 .517.068.662.524.724l.443.062c.091.072.069.31-.022.361-.421-.02-.91-.03-1.343-.03-.364 0-.796.01-1.252.03-.147-.041-.147-.31-.045-.361l.204-.031c.58-.093.649-.156.718-.797.056-.507.09-1.406.159-2.389.045-.692.068-1.53.068-2.088 0-.59-.25-.744-.705-.817l-.25-.041c-.092-.083-.092-.331.034-.362.386.02.875.031 1.433.031.376 0 .705 0 1.115-.031 0 .641.398 1.272.899 2.244l.75 1.458c.103.206.513.858.672 1.116.147-.248.33-.568.637-1.178l.58-1.138c.546-1.065.83-1.613 1.08-2.502.524.041.786.031 1.127.031.376 0 .9-.01 1.308-.031zm12 0c.126.062.126.258.034.362l-.33.052c-.466.072-.693.196-.693.744 0 2.13.022 3.247.09 4.55.024.475.07.724.513.775l.364.042c.09.082.09.32-.023.361a39.192 39.192 0 0 0-1.57-.03c-.512 0-1.138.01-1.684.03-.136-.051-.148-.29-.034-.361l.342-.042c.523-.062.523-.186.523-.817l-.023-2.688v-1.179h-.023c-.842 1.654-1.752 3.381-2.503 5.129a.39.39 0 0 1-.227.072.648.648 0 0 1-.296-.062c-.444-1.282-1.843-3.846-2.48-5.19h-.023a32.661 32.661 0 0 0-.068 1.664c-.011.672-.023 1.706-.023 2.327 0 .517.068.662.524.724l.443.062c.091.072.069.31-.022.361-.421-.02-.91-.03-1.343-.03-.364 0-.796.01-1.252.03-.147-.041-.147-.31-.045-.361l.204-.031c.58-.093.649-.156.718-.797.056-.507.09-1.406.159-2.389.045-.692.068-1.53.068-2.088 0-.59-.25-.744-.705-.817l-.25-.041c-.092-.083-.092-.331.034-.362.386.02.875.031 1.433.031.376 0 .705 0 1.115-.031 0 .641.398 1.272.899 2.244l.75 1.458c.103.206.513.858.672 1.116.147-.248.33-.568.637-1.178l.58-1.138c.546-1.065.83-1.613 1.08-2.502.524.041.786.031 1.127.031.376 0 .9-.01 1.308-.031zm-84 0c.126.062.126.258.034.362l-.33.052c-.466.072-.694.196-.694.744 0 2.13.023 3.247.091 4.55.023.475.069.724.512.775l.365.042c.09.082.09.32-.023.361a39.184 39.184 0 0 0-1.57-.03c-.512 0-1.138.01-1.684.03-.136-.051-.148-.29-.034-.361l.341-.042c.523-.062.523-.186.523-.817l-.022-2.688v-1.179h-.023c-.842 1.654-1.752 3.381-2.503 5.129a.39.39 0 0 1-.227.072.648.648 0 0 1-.296-.062c-.444-1.282-1.843-3.846-2.48-5.19h-.023a32.222 32.222 0 0 0-.068 1.664c-.012.672-.023 1.706-.023 2.327 0 .517.068.662.524.724l.443.062c.09.072.068.31-.023.361-.42-.02-.91-.03-1.342-.03-.364 0-.796.01-1.252.03-.148-.041-.148-.31-.045-.361l.205-.031c.58-.093.648-.156.717-.797.056-.507.09-1.406.159-2.389.045-.692.068-1.53.068-2.088 0-.59-.25-.744-.705-.817l-.25-.041c-.092-.083-.092-.331.033-.362.387.02.876.031 1.434.031.375 0 .705 0 1.115-.031 0 .641.398 1.272.899 2.244l.75 1.458c.103.206.512.858.672 1.116.147-.248.33-.568.637-1.178l.58-1.138c.546-1.065.83-1.613 1.08-2.502.524.041.786.031 1.127.031.375 0 .899-.01 1.308-.031zm-59.73 0c1.13 0 1.69.242 2.015.242.03.304.04 1.012.142 1.63-.04.11-.315.12-.386.02-.326-.951-.967-1.427-1.913-1.427-1.618 0-2.401 1.335-2.401 2.934 0 1.446.498 2.306 1.16 2.751.488.324 1.017.385 1.394.385.58 0 .702-.111.702-.77v-.636c0-.547-.061-.607-.55-.678l-.447-.06c-.112-.062-.112-.294 0-.355.722.02 1.22.03 1.72.03.488 0 .986-.01 1.332-.03.081.06.081.293 0 .354l-.234.04c-.305.052-.367.152-.367.699v.566c0 .425.02.627.214.668.04.04.03.212-.03.243l-.247.04a3.18 3.18 0 0 0-.465.112c-.357.11-1.231.242-1.801.242-.692 0-1.282-.07-2.005-.354-1.19-.475-2.004-1.598-2.004-3.055 0-1.264.57-2.377 1.79-3.055.692-.374 1.517-.536 2.381-.536zm153.62 0c.133 0 .195.052.236.206.081.299.204.68.46 1.413l1.388 4.041c.214.619.306.856.685.918l.388.061c.06.052.081.3-.01.361a39.18 39.18 0 0 0-1.573-.03c-.51 0-.91.01-1.38.03-.112-.062-.132-.278-.02-.36l.327-.052c.235-.041.276-.114.276-.176 0-.072-.072-.32-.194-.7l-.276-.887c-.05-.165-.133-.186-.49-.186h-1.216c-.245 0-.275.01-.337.207l-.398 1.195c-.061.207-.071.289-.071.371 0 .062.133.124.418.176l.307.051c.061.072.081.31-.02.361-.358-.02-.726-.02-1.154-.03-.348 0-.583.03-1.053.03-.112-.062-.102-.278-.03-.36l.276-.031c.244-.031.449-.114.622-.516.174-.413.368-.908.644-1.65l.93-2.515c.234-.65.408-1.01.377-1.31.49-.113.868-.618.889-.618zm-119.024 0c.894 0 1.662.136 2.062.377.61.356.926.878.926 1.548 0 .931-.631 1.33-1.116 1.57-.105.052-.105.115-.052.23.694 1.402 1.125 2.187 1.63 2.616.274.22.548.282.706.292.094.053.094.21.042.273-.169.073-.505.094-.832.094-.967 0-1.578-.345-2.04-1.099a13.05 13.05 0 0 1-.821-1.622c-.126-.282-.295-.366-.557-.366-.369 0-.39.021-.39.23v1.288c0 .962.063 1.035.536 1.119l.285.052c.073.053.073.304 0 .367a38.397 38.397 0 0 0-3.082 0c-.085-.063-.085-.314 0-.367l.283-.052c.446-.079.528-.148.536-.959v-3.865c0-1.046-.02-1.16-.462-1.224l-.284-.042c-.105-.052-.105-.313.02-.366.79-.052 1.61-.094 2.61-.094zm127.062 0c.098.063.098.305 0 .368l-.317.042c-.549.074-.622.158-.622 1.135v3.679c0 .494.049.83.208.998.158.178.377.263 1.268.263 1.11 0 1.45-.032 2.17-1.251.098-.105.378-.063.464.063-.061.547-.354 1.42-.524 1.703-.588-.02-1.609-.03-2.541-.032h-1.91c-.561 0-1.171.011-1.927.032-.11-.063-.134-.305-.037-.368l.464-.053c.548-.063.622-.147.622-1.124v-3.91c0-.977-.073-1.072-.622-1.135l-.354-.042c-.122-.063-.122-.305.024-.368a54.212 54.212 0 0 0 3.634 0zm-40.888 0c.067.062.09.268 0 .35l-.204.042c-.294.062-.508.124-.61.34-.124.268-.17 1.052-.17 1.887v1.154c0 .97-.1 1.856-.722 2.485-.497.485-1.321.742-2.236.742-.858 0-1.626-.123-2.236-.577-.587-.444-.835-1.207-.835-2.33v-2.578c0-.958-.068-1.02-.576-1.113l-.283-.051c-.09-.062-.101-.29.023-.351a43.162 43.162 0 0 0 3.297 0c.091.062.091.289 0 .35l-.27.042c-.48.078-.567.155-.576.963v2.542c0 1.206.146 2.536 1.862 2.536 1.446 0 1.886-1.154 1.886-2.567v-1.247c0-.835-.044-1.62-.169-1.887-.101-.216-.35-.278-.655-.33l-.305-.051c-.09-.083-.068-.29 0-.351.61.021 1.05.03 1.513.03.418 0 .836-.009 1.266-.03zm-90.676 0c.012.169.096.925.157 1.63-.049.115-.326.136-.446.041-.133-.367-.302-.683-.458-.83-.229-.2-.59-.325-1.18-.325h-.965c-.397 0-.397.02-.397.41v1.838c0 .295.012.316.337.316h.832c.626 0 .77-.074.891-.578l.06-.263c.085-.084.386-.084.446.01-.024.337-.036.715-.036 1.114 0 .4.012.778.036 1.114-.06.095-.361.106-.446.011l-.06-.263c-.12-.504-.265-.588-.891-.588h-.832c-.325 0-.337.01-.337.326v1.25c0 .483.048.82.193.999.156.189.385.273 1.265.273 1.048 0 1.457-.031 2.12-1.22.097-.115.398-.073.446.053-.048.547-.337 1.398-.506 1.682-.575-.019-1.57-.03-2.483-.031h-1.866c-.579 0-1.169.01-2.073.031-.096-.063-.096-.315 0-.368l.567-.074c.51-.068.604-.128.613-.942v-4.081c0-.957-.071-1.02-.613-1.114l-.302-.053c-.108-.063-.096-.305.025-.368.565.021 1.156.032 1.734.032h2.554c.771 0 1.458-.01 1.615-.032zm152.675 0c.068.062.09.268 0 .35l-.203.042c-.294.062-.508.124-.61.34-.125.268-.17 1.052-.17 1.887v1.154c0 .97-.101 1.856-.722 2.485-.497.485-1.321.742-2.236.742-.858 0-1.626-.123-2.236-.577-.587-.444-.835-1.207-.835-2.33v-2.578c0-.958-.068-1.02-.576-1.113l-.283-.051c-.09-.062-.101-.29.023-.351a43.16 43.16 0 0 0 3.297 0c.091.062.091.289 0 .35l-.27.042c-.48.078-.567.155-.576.963v2.542c0 1.206.146 2.536 1.862 2.536 1.446 0 1.886-1.154 1.886-2.567v-1.247c0-.835-.044-1.62-.169-1.887-.101-.216-.35-.278-.655-.33l-.305-.051c-.09-.083-.068-.29 0-.351.61.021 1.05.03 1.513.03.418 0 .836-.009 1.265-.03zm-134.998 0c.066.062.088.28 0 .362l-.197.031c-.284.041-.492.124-.591.341-.12.28-.164 1.055-.164 1.892v2.913c0 .505.005.958.022 1.223-.077.124-.384.238-.646.238-.011 0-.372-.527-.887-1.127l-2.529-2.957c-.635-.734-.996-1.168-1.193-1.323-.048.09-.054.236-.054.527v2.14c0 .837.043 1.613.164 1.892.098.217.35.29.634.33l.307.043c.088.082.066.3 0 .361a40.92 40.92 0 0 0-1.467-.03c-.405 0-.81.01-1.226.03-.066-.062-.087-.279 0-.361l.186-.031c.296-.052.515-.125.602-.342.12-.28.153-1.055.153-1.892v-2.626c0-.569-.01-.734-.076-.879-.088-.176-.241-.3-.624-.352l-.307-.04c-.076-.083-.065-.332.044-.363.514.021 1.062.031 1.51.031.373 0 .69-.01.92-.031.11.465.822 1.251 1.807 2.358l.92 1.023c.48.538.798.9 1.05 1.137.044-.103.044-.279.044-.465v-1.427c0-.837-.044-1.612-.164-1.892-.099-.217-.34-.289-.635-.33l-.296-.042c-.088-.082-.066-.3 0-.362a39.56 39.56 0 0 0 1.467.031c.405 0 .8-.01 1.226-.031zm170 0c.066.062.088.28 0 .362l-.197.031c-.285.041-.493.124-.591.341-.12.28-.164 1.055-.164 1.892v2.471c0 .673 0 1.324.022 1.665-.077.124-.383.238-.646.238-.01 0-.372-.527-.887-1.127l-2.529-2.957c-.635-.734-.996-1.168-1.193-1.323-.048.09-.054.236-.055.527v2.14c0 .837.044 1.613.165 1.892.098.217.35.29.635.33l.306.043c.087.082.066.3 0 .361a40.9 40.9 0 0 0-1.467-.03c-.405 0-.81.01-1.226.03-.065-.062-.088-.279 0-.361l.186-.031c.296-.052.514-.125.602-.342.12-.28.153-1.055.153-1.892v-2.626c0-.569-.01-.734-.076-.879-.088-.176-.24-.3-.624-.352l-.306-.04c-.077-.083-.066-.332.043-.363.515.021 1.062.031 1.51.031.373 0 .69-.01.92-.031.11.465.821 1.251 1.807 2.358l.92 1.023c.481.538.799.9 1.05 1.137.035-.082.042-.211.044-.355v-1.537c0-.837-.044-1.612-.164-1.892-.098-.217-.34-.289-.635-.33l-.296-.042c-.087-.082-.065-.3 0-.362.591.021 1.018.031 1.467.031.405 0 .8-.01 1.226-.031zm-141 0c.066.062.088.28 0 .362l-.197.031c-.284.041-.492.124-.591.341-.12.28-.164 1.055-.164 1.892v2.913c0 .505.005.958.022 1.223-.077.124-.384.238-.646.238-.011 0-.372-.527-.887-1.127l-2.529-2.957c-.635-.734-.996-1.168-1.193-1.323-.048.09-.054.236-.054.527v2.14c0 .837.043 1.613.164 1.892.098.217.35.29.634.33l.307.043c.088.082.066.3 0 .361a40.92 40.92 0 0 0-1.467-.03c-.405 0-.81.01-1.226.03-.066-.062-.087-.279 0-.361l.186-.031c.296-.052.515-.125.602-.342.12-.28.153-1.055.153-1.892v-2.626c0-.569-.01-.734-.076-.879-.088-.176-.241-.3-.624-.352l-.307-.04c-.076-.083-.065-.332.044-.363.514.021 1.062.031 1.51.031.373 0 .69-.01.92-.031.11.465.822 1.251 1.807 2.358l.92 1.023c.48.538.798.9 1.05 1.137.044-.103.044-.279.044-.465v-1.427c0-.837-.044-1.612-.164-1.892-.099-.217-.34-.289-.635-.33l-.296-.042c-.088-.082-.066-.3 0-.362a39.56 39.56 0 0 0 1.467.031c.405 0 .8-.01 1.226-.031zm-54.015 0c.087.041.098.289.022.35l-.286.052c-.307.051-.494.124-.637.34-.242.34-.516.918-.89 1.753l-.802 1.783c-.56 1.248-.845 2.062-1.098 2.64a.776.776 0 0 1-.385.082.476.476 0 0 1-.296-.082c-.12-.279-.307-.825-.461-1.176l-1.78-4.196c-.417-.99-.472-1.01-.824-1.093l-.439-.102c-.088-.114-.055-.3.044-.351.56.01.922.03 1.494.03.505 0 .977-.009 1.648-.03.087.062.076.258.01.35l-.33.062c-.197.041-.274.103-.274.196 0 .083.176.516.44 1.134l.966 2.32.363.866c.088-.175.263-.526.395-.835l.417-.97c.275-.649.748-1.803.88-2.154.076-.196.11-.31.11-.371 0-.072-.089-.114-.352-.175l-.352-.072c-.088-.083-.088-.3.044-.351.516.021.934.03 1.351.03.374 0 .703-.009 1.022-.03zm62.908 0c.066 0 .143.04.165.071-.11.346-.187 1.17-.165 1.75-.056.092-.353.112-.408.03-.188-.65-.342-1.128-1.169-1.128h-.661c-.265 0-.298.03-.298.294v4.487c0 .946.066 1.028.562 1.089l.441.051c.077.06.077.295 0 .356-.716-.02-1.267-.03-1.763-.03-.53 0-1.103.01-1.874.03-.089-.061-.089-.295 0-.356l.495-.051c.467-.048.554-.132.562-.93v-4.646c0-.244 0-.294-.264-.294h-.683c-.805 0-1.037.406-1.367 1.15-.133.06-.342.04-.408-.093.231-.702.287-1.333.364-1.73a.273.273 0 0 1 .154-.05c.055 0 .11.01.154.04.055.174.088.214.926.214h4.101c.728 0 .893-.01.992-.223a.295.295 0 0 1 .144-.031zm113.957 0c.132 0 .194.052.235.206.081.299.204.68.46 1.413l1.388 4.041c.214.619.306.856.685.918l.388.061c.06.052.081.3-.01.361a39.18 39.18 0 0 0-1.573-.03c-.51 0-.91.01-1.38.03-.112-.062-.132-.278-.02-.36l.327-.052c.235-.041.276-.114.276-.176 0-.072-.072-.32-.194-.7l-.276-.887c-.05-.165-.133-.186-.49-.186h-1.216c-.245 0-.275.01-.337.207l-.398 1.195c-.061.207-.071.289-.071.371 0 .062.133.124.418.176l.307.051c.061.072.081.31-.02.361-.358-.02-.726-.02-1.154-.03-.348 0-.583.03-1.053.03-.112-.062-.102-.278-.03-.36l.276-.031c.244-.031.449-.114.622-.516.174-.413.368-.908.644-1.65l.93-2.515c.234-.65.408-1.01.377-1.31.49-.113.868-.618.889-.618zm8.132 0c.101.063.101.305 0 .368l-.356.053c-.55.079-.65.148-.66.98v4.033c0 .988.076 1.062.66 1.145l.356.053c.101.063.089.305-.013.368a63.04 63.04 0 0 0-1.905-.032c-.61 0-1.244.011-1.93.032-.101-.063-.101-.305 0-.368l.356-.053c.584-.083.66-.157.66-1.145v-3.868c0-.988-.076-1.061-.66-1.145l-.356-.053c-.101-.063-.101-.305 0-.368.686.021 1.32.032 1.93.032.597 0 1.232-.01 1.918-.032zm-12.011 0c.103.052.114.279.035.361l-.344.072c-.262.052-.434.134-.514.227-.126.165-.32.495-.629 1.144-.56 1.206-1.806 3.774-2.365 5.114-.069.051-.23.082-.378.082a.564.564 0 0 1-.308-.082c-.126-.248-.297-.619-.435-.907l-.48-.98c-.16-.33-.308-.64-.411-.793-.103.174-.24.422-.389.71l-.525 1c-.172.33-.298.63-.48.97-.058.051-.218.082-.39.082a.626.626 0 0 1-.308-.082c-.183-.433-.64-1.36-1.029-2.134l-1.863-3.64c-.308-.607-.377-.66-.754-.732l-.286-.05c-.092-.104-.08-.31.046-.362.423.021.903.03 1.485.03.504 0 .95-.009 1.384-.03.091.042.137.3.023.361l-.206.031c-.206.031-.285.082-.285.155 0 .072.24.556.594 1.278l1.131 2.278c.32.64.492.928.628 1.176.138-.207.401-.691.584-1.063l.148-.298c.08-.166.114-.3.114-.361 0-.062-.08-.279-.125-.381l-1.097-2.176c-.263-.515-.343-.588-.777-.629l-.115-.01c-.114-.082-.092-.32.034-.361.492.021.938.03 1.44.03.583 0 1.018-.009 1.315-.03.137.03.126.31.045.361l-.194.041c-.137.031-.308.072-.308.145 0 .082.045.195.103.309l.343.711c.103.217.25.495.354.68l.354-.7.103-.206c.194-.392.332-.702.332-.764 0-.072-.046-.103-.23-.144l-.41-.072c-.08-.072-.07-.31.034-.361.331.021.743.03 1.12.03.445 0 .869-.009 1.166-.03.091.052.114.3.011.371l-.32.062c-.389.072-.468.072-.869.691-.274.422-.56.938-.708 1.206-.103.186-.252.484-.252.536 0 .03.012.093.092.258l.537 1.04c.297.568.457.898.525 1.042.55-1.196 1.178-2.505 1.727-3.762.08-.176.297-.722.297-.836 0-.103-.183-.144-.331-.185l-.252-.062c-.091-.093-.069-.31.034-.361.366.021.835.03 1.178.03.4 0 .731-.009 1.051-.03zm-87.937 0v.233c.002.32.006.878.024 1.407-.047.115-.306.126-.448.042-.13-.431-.224-.684-.342-.82-.2-.221-.554-.347-1.155-.347h-.92c-.356 0-.386.018-.388.336v1.997c0 .284.011.316.33.316h.907c.625 0 .755-.074.873-.589l.059-.252c.082-.095.377-.084.448.01-.024.337-.036.726-.036 1.125 0 .389.012.778.036 1.093-.071.094-.366.105-.448.01l-.06-.252c-.117-.504-.247-.588-.872-.588h-.907c-.319 0-.33.031-.33.315v1.419c0 .977.07 1.061.6 1.124l.437.053c.082.063.082.305 0 .368a63.897 63.897 0 0 0-1.875-.032c-.542 0-1.131.011-1.838.032-.095-.063-.095-.305 0-.368l.389-.053c.53-.073.6-.147.6-1.124v-3.91c0-.977-.07-1.072-.6-1.145l-.236-.032c-.106-.063-.106-.326.024-.368.506.021 1.096.032 1.661.032h2.476c.755 0 1.427-.011 1.591-.032zm-12.033.465c-1.39 0-2.135 1.163-2.135 2.853 0 1.234.486 3.217 2.328 3.217 1.48 0 2.056-1.295 2.056-2.934 0-1.73-.847-3.136-2.249-3.136zm-87 0c-1.39 0-2.135 1.163-2.135 2.853 0 1.234.486 3.217 2.328 3.217 1.48 0 2.056-1.295 2.056-2.934 0-1.73-.847-3.136-2.249-3.136zm144.134 1.277c-.082.238-.286.794-.44 1.268l-.255.773c-.092.279-.04.31.215.31h.96c.235 0 .286-.031.204-.299l-.265-.835c-.143-.444-.327-1-.42-1.217zm46 0c-.082.238-.286.794-.44 1.268l-.255.773c-.092.279-.04.31.215.31h.96c.235 0 .286-.031.204-.299l-.265-.835c-.143-.444-.327-1-.42-1.217zm-164.3-1.26c-.4 0-.447.026-.451.432v2.141c0 .367.03.398.651.398.38 0 .6-.094.8-.293.179-.178.379-.513.379-1.13 0-.942-.558-1.549-1.378-1.549zm75.494-47.478c1.143-1.323 3.524-2.802 5.14-1.5 1.633 1.315 2.685 4.179 2.993 6.192.205 1.336-.017 2.402-.55 3.624-.17.386-.335 1.06-.657 1.349-.35.315-.873.242-1.321.308.774 2.193 1.616 5.734 4.378 6.174 2.739.436 3.89-3.763 4.624-5.65 1.033-2.66 2.366-5.43 4.722-7.145.752-.548 2.067-1.352 3.047-.977.573.219.84.852 1.151 1.34a43.12 43.12 0 0 0 1.457 2.176c.76 1.045 1.726 2.218 2.833 2.903 1.159.716 2.844.694 4.137.437a6.053 6.053 0 0 0 3.276-1.85c.937-1.04 1.184-2.481 2.075-3.521.378-.44.9-.664 1.296-1.076.402-.418.657-.976 1.053-1.408.93-1.015 2.472-2.027 3.92-1.888 1.191.113 1.965 1.38 2.46 2.358.68 1.343 1.326 2.673 1.582 4.164.28 1.633.031 2.801-.67 4.29-.486 1.032-.663 1.065-1.743.993-1.78-.118-3.473-.57-5.157-1.158-.715-.25-1.422-.53-2.059-.95-.625-.41-.687-.756-.937-1.418-.627.424-.808 1.547-1.145 2.197-.422.816-.913 1.632-1.577 2.272-1.517 1.462-3.614 1.812-5.63 1.506-1.957-.296-3.497-2.092-4.592-3.63-.6-.844-1.08-1.766-1.677-2.611-.636-.902-1.359-.739-2.322-.289-3.956 1.85-4.98 7.086-6.555 10.696-.913 2.092-2.187 3.368-4.37 1.987-1.587-1.005-2.627-2.65-3.41-4.332a15.486 15.486 0 0 1-1.158-3.54c-.114-.593-.146-1.395-.401-1.95-.217-.47.1-.236-.499-.504-.24-.108-.54-.146-.794-.215-1.159-.314-2.333-.63-3.433-1.122-.47-.21-1.02-.452-1.406-.806-.41-.377-.372-.648-.587-1.153-.715.486-1.065 1.46-1.458 2.193-.55 1.026-1.107 2.067-1.794 3.01-1.15 1.577-2.553 2.716-4.108 3.86-3.625 2.667-7.432 4.928-11.305 7.205-1.911 1.123-3.798 2.312-5.797 3.271-1.945.934-4.02 1.444-6.092 2.017-4.266 1.182-8.599 2.357-12.965 3.102-.7.119-1.757.156-.963-.628.676-.669 2.316-1.04 3.18-1.4 2.107-.875 4.226-1.729 6.317-2.648 4.227-1.857 8.282-4.027 12.442-6.024a113.41 113.41 0 0 0 11.77-6.563 74.7 74.7 0 0 0 5.489-3.866c1.698-1.31 2.837-2.818 3.91-4.666.56-.962 1.054-2.2 1.846-2.994.34-.342.782-.522 1.108-.88.347-.382.587-.869.926-1.262zM1199.761 140c1.092.046-.077 2.419-.279 2.966-.454 1.23-1.24 2.442-1.333 3.761-.047.669.48 2.604 1.584 1.915.468-.293.325-1.45.73-1.648.707-.346.521.833.498.977-.15.945-.66 2.891-1.974 3.022-1.23.123-1.867-1.434-1.962-2.3-.155-1.414.438-2.837.93-4.15.566-1.519 1.12-3.068 1.807-4.543zm73.19-59.997c.78-.101 1.321 2.095 1.506 2.543.883 2.136 1.733 4.291 2.538 6.456.195.524 1.187 2.301.444 2.713-.758.42-1.64-1.313-2.164-1.635.226 1.841.715 3.652.996 5.492.309 2.017.629 4.031.95 6.047.634 3.967 1.297 7.931 1.9 11.904.564 3.71 1.369 7.606.488 11.334-.374 1.588-.966 3.386-2.066 4.631-1.13 1.28-3.11 2.09-4.724 2.54-1.649.458-3.694.735-5.139-.368-1.66-1.267-2.33-3.338-3.075-5.192-1.958 1.29-3.804 2.676-6.231 2.932-2.25.239-4.095-1.04-4.75-3.194-.317-1.044-.307-1.5-1.449-.748-.98.647-1.79 1.66-2.624 2.473-.869.846-1.819 1.352-2.836 2.003-1.066.683-1.24 1.798-1.573 2.955-.69 2.404-2.406 4.14-4.19 5.816-1.859 1.746-3.935 3.314-6.084 4.689-2.155 1.378-4.488 2.666-6.863 3.633-2.053.837-4.886 1.444-7.013.48-2.48-1.123-3.697-3.931-3.96-6.455-.164-1.578-.048-3.17.238-4.728.133-.727.304-1.446.499-2.16.165-.602.54-1.377.5-1.994-3.632 1.862-7.162 3.464-11.198 4.293-4.133.848-8.862 1.322-12.632-1.025-3.419-2.129-5.427-5.615-6.071-9.527-.355-2.15-.504-4.466-.217-6.632.245-1.844.285-4.375 1.315-6 .752-1.187.855.488.69 1.121-.293 1.133-.497 2.155-.55 3.335-.095 2.104.028 4.265.635 6.294.52 1.74 1.3 3.588 2.552 4.933 1.346 1.447 2.778 2.258 4.572 3.028 4.004 1.718 9.06.254 13.043-.807 4.144-1.104 7.794-3.095 11.393-5.386 1.9-1.21 3.724-2.627 5.478-4.038.635-.51 1.602-1.165 2.018-1.883.398-.689.084-1.684-.049-2.42-.434-2.398-1.382-4.513-2.923-6.403-.686-.842-1.623-1.587-1.464-2.718.166-1.179.332-2.44.746-3.557.612.661 1.171 1.574 1.867 2.13.793.635 2.001.434 2.918.17 1.977-.567 3.008-2.439 4.22-3.955 1.065-1.332 2.992-2.582 3.87-.362.545 1.38-.027 4.458-1.28 5.388-.228-.55.162-1.694-.177-2.098-.518-.617-1.671.407-2.002.77-1.163 1.283-1.86 2.935-3.377 3.887-.285.179-.59.33-.906.449-.636.238-.671.092-.628.762.064.987.457 2.004.575 3.001.243 2.053.324 4.11-.06 6.146-.193 1.03-.393 1.46-1.089 2.242-.669.752-1.322 1.514-2.064 2.198-1.612 1.482-3.397 2.855-5.184 4.123-.619.44-1.43.758-1.922 1.342-.589.7-.93 1.787-1.178 2.649-.525 1.82-1.146 3.874-.565 5.74 2.957 9.497 15.612.433 20.21-2.658 1.671-1.124 3.28-2.412 4.677-3.868.385-.401.763-.827.405-1.392-.306-.482-.678-.21-1.255-.104-.578.107-1.155.213-1.735.31-1.735.293-4.084.607-5.445-.822-1.432-1.504-.881-3.791-.196-5.486.709-1.75 2.188-3.848 4.305-3.852 2.09-.004 3.681 1.844 4.792 3.389.254.353.477 1.091.774 1.35.335.291 1.015-.077 1.475-.278a12.737 12.737 0 0 0 2.666-1.575c1.645-1.282 2.945-3.525 5.125-3.854.113 1.739.517 3.543 2.333 4.296 1.704.707 3.761.014 5.329-.704.308-.141.861-.297 1.096-.568.387-.446.126-.728-.038-1.307-.273-.96-.579-1.977-.723-2.962-.278-1.903-.012-4.07.698-5.858.537-1.352 2.173-3.435 3.904-2.718 1.431.593 2.4 3.257 2.821 4.608.544 1.745.35 4.006-.287 5.71-.306.816-.727 1.725-1.202 2.457-.22.34-.482.656-.773.937-.158.152-.96.582-.985.777-.066.526 1.18 1.682 1.546 1.983.762.625 1.599.857 2.58.833 2.018-.047 4.072-.76 5.86-1.658.635-.32 1.258-.74 1.345-1.473.114-.952-.11-2.132-.218-3.084-.248-2.154-.607-4.299-.942-6.44-1.355-8.654-2.9-17.281-4.273-25.934a71.78 71.78 0 0 1-.468-3.567c-.068-.629-.34-1.03-.481-1.603-.112-.452.122-.877.267-1.305.132-.386.71-2.88 1.139-2.937zm116.248-.98c1.969-.161 3.729.518 4.048 2.642.271 1.801-.88 3.951-1.721 5.488-1.932 3.53-4.665 6.526-6.904 9.854a35.213 35.213 0 0 0-1.589 2.62c-.467.846-.83 1.977-1.495 2.691-.505-1.223.48-3.457.953-4.595a19.682 19.682 0 0 1 2.545-4.43c.98-1.27 1.867-2.602 2.88-3.85a45.487 45.487 0 0 0 1.489-1.954c.502-.69 1.512-1.662 1.747-2.47.854-2.953-6.769-.755-7.783-.334-3.205 1.33-6.537 2.396-9.755 3.725-6.462 2.668-12.988 5.489-18.564 9.731-.346.264-1.432.888-1.36 1.462.041.324 1.16 1.08 1.443 1.356a470.612 470.612 0 0 1 3.99 3.903c2.48 2.465 4.637 5.188 6.605 8.068 2.115 3.097 4.41 6.06 6.445 9.222 1.056 1.642 2.14 3.085 3.52 4.474 1.034 1.042 2.224 2.166 3.787 2.248-.682-1.742-1.556-3.495-2.088-5.285-.501-1.685-.12-3.685.549-5.28 1.52-3.625 5.28-4.488 8.882-3.94 3.737.57 7.374 1.92 10.996 2.968a67.983 67.983 0 0 0 11.181 2.238c-.198.83-.51 1.627-.785 2.434-.195.57-.282 1.423-.873 1.702-.677.32-1.777.257-2.534.452-.998.256-1.977.582-2.93.97-3.494 1.425-6.808 3.305-10.196 4.952a77.427 77.427 0 0 1-5.506 2.414c-.919.36-1.84.57-2.81.742-.35.062-.978.045-1.28.22-.404.234-.412.859-.563 1.347-.256.815-.676.711-.785-.132-.06-.457.055-.963-.32-1.18-.373-.214-1.084-.144-1.518-.246-1.388-.325-2.992-1.123-3.869-2.227-2.65-3.338-4.937-7-7.186-10.614-.244.077.012 2.14-.012 2.512a18.412 18.412 0 0 1-.462 2.94c-.466 1.974-1.41 2.801-3.22 3.644-.512.239-1.347.42-1.743.858-.466.517-.532 1.507-.7 2.147-.534 2.034-1.328 3.673-2.76 5.245-1.249 1.372-2.71 2.618-4.166 3.767-1.592 1.256-3.135 2.61-4.822 3.74-2.81 1.882-7.137 3.782-10.447 2.07-3.474-1.798-3.843-6.573-3.321-9.98.086-.568 1.074-5.359 2.034-4.938.489.213-.192 1.91-.305 2.256-.345 1.053-.566 2.086-.603 3.195-.065 1.926.285 3.531 1.888 4.75 1.526 1.162 3.393 1.195 5.208.802 3.567-.771 6.52-2.876 9.36-5.044l.737-.566c1.624-1.248 3.214-2.504 4.668-3.947.515-.512 1.25-1.068 1.129-1.874-.19-1.25-1.674-.243-2.47-.053-1.838.44-4.03 1.015-5.8.033-1.942-1.078-1.473-3.219-1.087-5.011.375-1.741 1.121-3.45 2.657-4.511 1.762-1.217 3.538-.505 5.132.622a9.419 9.419 0 0 1 1.91 1.822c.278.347.524.746.83 1.068.42.442.346.393 1.014.126a40.937 40.937 0 0 0 2.785-1.254c1.092-.532 1.056-.867.736-2.007-1.045-3.725-3.654-7.121-5.958-10.172-2.419-3.202-5.067-6.22-7.564-9.358-1.131-1.421-.966-3.612-.817-5.32.15-1.735 1.644-3 2.977-3.968 3.25-2.353 6.776-4.213 10.382-5.965 3.978-1.933 8.092-3.601 12.131-5.4 3.67-1.636 7.995-3.286 12.033-3.615zM1251.696 139c.622.034 1.753.974 2.275 1.285.462.276 1.736.822 1.987 1.316.216.428-.454 1.358-.657 1.735-.21.391-.777 1.85-1.268 1.939-.298.055-1.746-1.108-2.037-1.278-.68-.397-1.583-1.041-2.389-1.138-.411.764-1.264 3.28-2.364 3.134-.632-.083-1.566-.834-2.124-1.135-.547-.296-1.532-.556-1.947-.987-.3-.313-.156-.428.04-.806.159-.306.363-.588.545-.88.292-.47.648-1.653 1.11-1.941.363-.227 1.906.737 2.368.986.382.206 1.429 1.075 1.905.932.497-.15.998-1.569 1.251-2 .244-.416.663-1.197 1.305-1.162zm115.832-4.994c.997-.102 2.198 1.008 2.764 1.547.937.893 1.545 1.972 1.683 3.14.127 1.064-.26 2.034-.48 3.077-.233 1.114-.683 2.33-1.528 3.229-.22-.944.471-1.952.632-2.892.19-1.115.128-2.314-.36-3.378-.417-.908-1.16-1.636-2.088-2.234-.37-.239-1.026-.471-1.135-.89-.108-.415.367-1.194.512-1.6zM1266.553 134c1.1.136-.14 1.809-.439 2.37-.56 1.053-1.678 2.425-1.754 3.643-.077 1.245.86 2.41 1.683 1.026.218-.366.603-1.458.857-.56.108.382-.382 1.273-.539 1.61-.35.76-1.122 2.148-2.142 1.876-1.122-.298-1.299-2.044-1.192-2.975.311-2.728 2.23-4.72 3.526-6.99zm-56.598 3.673c.538-.663 1.338-.888 2.178-.439 1.648.883.597 3.134-.281 4.164-.308.36-1.41 1.791-2.07 1.581-.71-.226.635-1.431.86-1.768.291-.435.945-1.476.287-1.863-.6-.353-1.35.46-1.834.605-.374-.604.445-1.767.86-2.28zm179.981-3.464c.763-.288 1.873-.316 2.558.152 1.007.69-.34 2.676-.842 3.46-.253.395-1.234 1.48-1.076 1.9.24.643 1.423.218 1.92.087 1.804-.472 3.475-1.08 5.034-2.087.212-.137 1.503-1.311 1.47-.374-.017.452-1.345 1.492-1.66 1.745-.584.47-1.27.848-1.915 1.234-.623.372-1.604 1.053-2.328 1.222l-.02.003a1.474 1.474 0 0 1-.295.098c-1.174.422-2.648.602-3.008-.269-.144-.225-.163-.53-.122-.92.17-1.615 1.355-3.025 2.22-4.353-.673-.712-2.055-.211-2.872-.057 0-.784.134-1.537.936-1.84zM1344.211 133c.491.273.385.17.273.622-.083.34-.387.784-.543 1.1-.298.601-.762 1.247-.947 1.89-.133.463.016 1.585.657 1.707.642.122.838-.837.997-1.227.596.273.297.64.104 1.17-.163.445-.345.963-.671 1.324-.72.797-1.631.35-1.939-.549-.67-1.953 1.193-4.387 2.069-6.037zm-115.61-1c.116.002.785.444.852.478.377.195.761.378 1.14.57.596.3 1.79.665 2.208 1.175.683.831-.573 2.79-1.06 3.541-.314.484-.242.461-.752.302-.368-.115-.734-.386-1.08-.568l-2.465-1.296c-.285.731-.558 1.45-.879 2.166-.157.352-.442 1.433-.839 1.602-.464.197-1.864-.627-2.416-.857-.534-.223-1.74-.474-2.136-.9-.396-.426-.02-.916.182-1.412.286-.702.49-1.704.948-2.297.334-.432.121-.313.619-.242.368.053.79.334 1.14.482l2.629 1.109c.247-.596 1.14-3.864 1.91-3.853zm55.742-51.92c.627-.32.735.401.927.852 1.062 2.491 2.16 4.962 3.032 7.531.188.553 1.154 2.597.316 3.033-.854.444-1.497-2.233-1.972-2.067.912 7.564 2.232 15.088 3.326 22.626.54 3.727 1.045 7.468 1.028 11.245-.008 1.631-.055 3.381-.437 4.971-.376 1.565-.992 3.569-2.102 4.729-.552-.742-.004-2.095.1-2.91.157-1.247.17-2.496.176-3.751.012-2.367-.245-4.692-.414-7.048-.353-4.89-1.325-9.772-1.996-14.632-.678-4.914-1.208-9.904-2.104-14.78-.185-1.014-.285-2.021-.381-3.048-.044-.466-.047-.985-.208-1.43-.165-.456-.545-.701-.617-1.177-.139-.922.596-2.418.866-3.293.102-.334.131-.684.46-.852zm23.545.938c.158-.472.207-1.295.845-.925.461.267.617 1.403.82 1.849.398.868.754 1.722 1.074 2.622.572 1.61 1.386 3.117 1.997 4.71.192.502.603 1.584-.232 1.576-.72-.005-1.3-1.551-1.85-1.908.122 3.624 1.122 7.287 1.693 10.862.944-.432 1.785-1.205 2.626-1.806 1.042-.746 2.093-1.482 3.126-2.24a72.714 72.714 0 0 0 5.652-4.636c-1.172-.62-2.292-.559-2.168-2.14.07-.904.467-1.495.792-2.295.34-.838.184-1.75.617-2.602.881-1.735 2.428-.132 3.258.78 1.007 1.107 2.91 2.552 2.861 4.178-.022.72-.329 1.678-.727 2.285-.632.965-1.395.623-2.343.36-.659-.181-1.002-.456-1.545-.064-.695.504-1.22 1.562-1.862 2.166-2.984 2.807-6.639 4.813-10.093 7.003 1.23 6.975 2.75 14.096 2.849 21.19.042 3.048.347 6.83-1.222 9.602-.228.401-.534.63-.853.127-.263-.415.018-1.481.022-1.955a73.47 73.47 0 0 0-.157-5.126c-.446-7.191-1.846-14.412-3.056-21.512-.599-3.513-1.129-7.034-1.645-10.56-.222-1.52-.45-3.041-.588-4.572-.068-.764-.077-1.555-.315-2.293-.246-.767-.587-1.186-.42-2.01.183-.893.554-1.8.844-2.666zm80.991 38.321c-2.194-.585-4.469-1.256-6.74-.697-.904.222-2.031.526-2.72 1.189-.752.723.105 1.805.443 2.618.415 1 .868 1.99 1.206 3.02 0 0 .736 2.607.782 3.017.007.063.022.207.04.397.215.332.451.221 1.068.173.587-.046 1.17-.133 1.742-.267 1.17-.274 2.324-.701 3.443-1.132 3.989-1.538 7.822-3.493 11.654-5.385-1.433-.457-2.872-.79-4.338-1.105-2.213-.476-4.392-1.244-6.58-1.828zm-31.242 8.045c-1.056-.995-3.555-2.06-4.446-.27-.468.943.578.827 1.264.774 1.07-.083 2.128-.319 3.182-.504zm-116.412-.018c-1.222-1.044-3.284-2.163-4.31-.264 1.388.536 2.864.552 4.31.264zM1197.568 120c.666.049.479.225.442.8-.042.656-.174.58.399.924.702.423 1.821.512 2.34 1.189.463.603.2 1.782-.11 2.385-.32.623-.948 1.033-1.608 1.336-1.629.747-3.005.387-3.03-1.42-.028-1.963.711-3.448 1.567-5.214zm148.923 6.49c-.178-1.967-3.018-3.318-4.193-1.383.614.425 1.436.64 2.134.869.604.198 1.406.57 2.059.514zm-41.314-3.707c-.973-.3-1.953-.015-2.457.893 1.377.551 2.787 1.03 4.24 1.331-.254-.993-.75-1.906-1.783-2.224zm-108.017.459c-.22.508-.761 1.332.088 1.62.705.239 1.67-.441 2.15-.81l-2.238-.81zm68.931-8.12c-1.044-.533-2.394.804-2.338 1.819.043.776.478 1.688.687 2.435.253.9.518 1.778.832 2.658.86-.545 3.142-1.81 3.098-2.91-.038-.978-1.408-3.558-2.279-4.002zm-55.404-.06c.618-.48 4.067 1.953 4.88 2.397a.707.707 0 0 1 .432.675c-.358.808-.72 1.613-1.059 2.429-.14.334-.258.69-.458.997-.398.612-.35.453-.895.304-.821-.225-1.763-1.049-2.504-1.472-.413-.236-1.943-.758-2.066-1.233-.123-.476.458-1.372.625-1.764.228-.532.582-1.973 1.045-2.333zm38.075-4.062c1.09.038-.078 1.98-.28 2.427-.454 1.007-1.24 1.998-1.333 3.077-.047.547.48 2.13 1.584 1.566.468-.239.325-1.186.73-1.348.707-.283.521.682.498.8-.15.773-.66 2.365-1.974 2.472-1.23.1-1.867-1.174-1.962-1.882-.155-1.157.438-2.321.929-3.396.567-1.242 1.121-2.509 1.808-3.716zm55.664-2.796c.585-.313 3.999-2.559 4.466-2.156.327.283-.169 1.29-.396 1.566-.524.64-1.558.98-2.264 1.353-1.621.86-3.232 1.739-4.844 2.617-1.48.806-2.934 1.655-4.395 2.494-.682.392-1.346.81-1.991 1.262-.577.405-1.335 1.42-1.94 1.66-.356-1.73.87-2.714 2.165-3.525 1.48-.925 2.938-1.885 4.47-2.723 1.57-.86 3.152-1.701 4.73-2.548zm35.462-8.191c-.006-1.49 1.235-2.44 2.762-1.821.901.365 2.34 1.26 2.35 2.215.014 1.531-1.39 1.283-2.592 1.638-.636.189-1.229.5-1.745.88-.646.477-.583.643-.256 1.286.695 1.365 1.414 2.704 1.916 4.14.509 1.457.706 2.842.712 4.362.003.901.215 3.015-1.13 3.287.166-1.548.307-2.817-.09-4.354-.426-1.656-1.095-3.237-1.806-4.809-.608-1.344-1.366-2.543-.823-4.022.484-1.316 1.778-1.962 3.013-2.624-.707-.626-1.058-.257-1.664.148-.56.372-.645.278-.647-.326zm11.061 9.174c.59-.355 1.492-.196 1.888.4.383.575.02 1.477-.357 1.979-.43-.795-1.199-1.081-1.754-.203-.574.908-.347 2.128-.487 3.132-.1.715-.288 2.296-1.008 1.027-.376-.663-.785-2.24-1.6-2.574-.343-.14-.164.048-.384.028l-.14.163-.412-.163c-.38-.104-1.089-.324-1.352-.609-.464-.504-.512-2.008.2-2.28.736-.281 2.043.695 2.528 1.154.713.674 1.089 1.605 1.532 2.442.304-1.326-.104-3.623 1.346-4.496zm44.376-15.357c.709-.776 1.775-1.242 2.52-.324.393.484.595 1.121.664 1.748.06.544-.19 1.188-.083 1.696.22 1.054 1.586 1.285 1.574 2.667-.013 1.47-.718 3.138-1.24 4.472-.524 1.343-1.2 2.616-1.706 3.965-.337.896-.763 3.23.75 3.318.546.03.855-.483 1.119-.919.242-.401.55-1.082.875-.367.408.894-.947 2.996-1.524 3.528-.839.773-1.925.313-2.33-.738-.48-1.252-.052-3.204.277-4.446.363-1.367.944-2.65 1.501-3.935.438-1.012 1.518-2.671 1.342-3.825-.061-.398-.465-1.084-.832-1.268-.635-.319-.739.176-1.066.693-.774 1.22-1.92 2.285-2.935 3.28-2.212 2.166-5.13 3.181-7.737 4.63-2.664 1.48-5.49 3.32-8.494 3.81.304-.774 1.378-1.098 2.018-1.456.954-.533 1.906-1.072 2.856-1.613 1.624-.926 3.17-1.99 4.822-2.856 1.73-.907 3.46-1.878 5.064-3.019 1.44-1.023 3.296-2.47 4.176-4.09-.888-.338-2.308-.713-2.59-1.84-.24-.955.367-2.442.98-3.11zM1373.018 105c1.014.514-.702 3.678-.969 4.54-.227.737-.309 1.633.305 2.241.802.795 1.072-.377 1.28-1.007.872.063-.05 2.516-.357 2.868-.744.856-1.71.013-2.054-.816-.447-1.079-.14-2.401.205-3.462.479-1.47 1.056-2.913 1.59-4.364zm-46.493 1.003c.462-.067 1.754.865 2.172 1.093.679.373 1.484.778 2.017 1.311.603.603.125 1.075-.264 1.719-.285.472-.6 1.628-1.104 1.948-.502.32-1.53-.55-2.048-.85l-2.583-1.49c-.345.683-.69 1.362-1.016 2.052-.134.283-.248.583-.44.842-.382.518-.335.383-.858.257-.788-.19-1.691-.886-2.402-1.243-.397-.2-1.864-.64-1.983-1.042-.118-.403.44-1.159.6-1.49.219-.45.558-1.667 1.003-1.972.592-.405 3.9 1.65 4.682 2.026.68-.121.892-.872 1.147-1.341.168-.31.7-1.764 1.077-1.82zM1194.5 95c.884.105.365.911.167 1.49-.321.937-.689 1.86-1.091 2.769-.82 1.848-1.717 3.626-2.323 5.557-.28.892-.526 1.949-.028 2.814.502.874 1.125.914 1.767.127.31-.381.768-1.645 1.344-.897.377.49-.279 2.045-.467 2.548-.47 1.252-1.899 3.437-3.554 2.25-1.725-1.237-1.411-3.621-.965-5.334 1.027-3.95 3.326-7.663 5.15-11.324zm87.704 2c.965.227.115 1.585-.115 2.171-.418 1.063-1.082 2.322-1.134 3.468-.028.629.328 2.132 1.18 1.338.223-.209.334-1.19.755-.859.231.182.032.84-.027 1.05-.2.727-.786 2.06-1.741 1.798-1.021-.28-1.182-1.588-1.107-2.432.197-2.234 1.377-4.457 2.189-6.534zm-28.927.67c1.266-1.868 3.644.592 2.346 2.238-.662-.736-1.534-1.646-2.1-.345-.509 1.17-.402 2.66-.493 3.91-.039.527.06 3.277-.909 2.33-.336-.327-.537-1.059-.78-1.461-.3-.496-.64-.98-1.032-1.41-.132-.143-.316-.438-.512-.499-.03-.01-.321.21-.444.2-.506-.04-1.363-.306-1.797-.536-.612-.323-.783-1.959-.19-2.429.872-.692 2.402.513 2.958 1.055.814.793 1.376 1.774 1.926 2.75.315-.08.232-2.302.271-2.701.098-1.01.165-2.23.756-3.102zm50.33-.371c.345-.679.467-.052.655.407.262.636.69 1.173 1.089 1.739.42.595.736 1.012.626 1.746-.079.525-.252 1.213-.716 1.568-1.046.8-2.09.1-2.732-.703-.705.56-.491 1.466-1.529 1.845-.915.334-1.662-.225-1.97-1.007-.33-.835-.176-1.902-.667-2.655-.149-.23-.245-.097-.334-.366-.075-.228.01-.619.037-.867.047-.436.053-.806.604-.455.994.631.012 4.298 2.067 3.736 1.073-.294 1.154-1.102.907-1.953-.323-1.113-.576-1.76-.42-2.937.761-.022 1.183 1.947 1.352 2.453.34 1.014 1.095 1.792 2.266 1.129-.683-.988-1.878-2.418-1.235-3.68zm70.74-5.298l.184.003c1.117.085 1.255 1 .854 1.83-.031.065-.237.533-.36.563-.264.063-.077-.113-.321-.22-.44-.19-.357-.32-.924-.197-1.236.268-2.24 1.302-3.198 2.066.486.669 2.902-.147 3.577-.32 1.086-.276 2.223-.874 3.361-.813 2.147.116 3.53 2.955 1.456 4.304-.995.647-2.55.867-3.68 1.215-1.273.393-2.548.788-3.846 1.09-1.237.286-2.543.533-3.818.467-.53-.027-3.29-.661-2.488-1.555 4.447.561 9.28-1.226 13.4-2.768-.833-1.264-1.891-.923-3.145-.56-1.332.383-2.712.732-4.089.902-1.266.156-2.006-.256-1.796-1.588.209-1.317 1.202-2.226 2.2-3.028.717-.575 1.843-1.461 2.817-1.388zm-3.998-13.93c1.28-.457.379 1.444-.23 1.811-1.21.732-2.666 1.337-3.956 1.922-5.615 2.55-10.998 5.669-16.485 8.482-6.172 3.164-11.884 6.93-17.679 10.714.042-.539-.059-1.382.23-1.847.286-.464 1.169-.901 1.63-1.221 1.4-.975 2.854-1.884 4.3-2.789 2.495-1.56 5.026-3.05 7.622-4.434 5.505-2.937 11.075-5.738 16.611-8.617 1.29-.67 2.599-1.298 3.905-1.934 1.313-.64 2.7-1.604 4.052-2.088zm-77.124 14.95c.117-.371.674-2.875 1.081-1.718.28.792-.585 2.479-.803 3.254-.241.858-.779 2.116-.302 2.97.75 1.34 1.217-.332 1.433-.974.978.082-.117 4.868-1.99 3.025-1.525-1.502.063-4.923.581-6.556zm-70.276-3.925c.434-.263.977.077 1.38.27.563.27.673.453.67 1.107-.002.257.028.963-.285 1.074-.225.08-.846-.595-1.23-.603-1.421-.028-.454 4.639-.543 5.615-.014.152-.069 1.358-.345 1.433-.337.091-.655-.611-.775-.825a16.82 16.82 0 0 0-2.11-3.003c-.343.534-.506.334-1.096.13-.45-.154-1.154-.24-1.442-.67-.306-.457-.125-1.258-.082-1.766.041-.486-.064-.559.351-.664.242-.062.553.092.776.16a5.046 5.046 0 0 1 2.551 1.75c.254.324 1.423 2.536 1.633 2.479-.09-1.142-.248-2.303-.23-3.45.011-.696.072-2.608.777-3.037zM1260.935 83c.776.547 1.563 1.076 2.334 1.63.4.287 1.355.765 1.584 1.26.195.425-.15 1.11-.292 1.504-.23.644-.98 1.772-.989 2.47-.007.548.263.673.679 1.015.704.579 1.423 1.135 2.13 1.71.803.658.724.918.33 1.92-.282.713-.602 1.666-1.099 2.226-.588.662-1.066-.07-1.616-.526-.715-.591-1.429-1.187-2.157-1.76-.535-.42-.928-.536-.788-1.258.174-.897.984-1.622 1.203-2.496.278-1.113-2.252-2.336-2.915-3.072-.317-.352-.398-.239-.3-.78.082-.46.436-.975.632-1.389.393-.829.74-1.716 1.264-2.454zm136.657 13.915c-.042-.933-.596-2.532-1.683-1.849-1.428.897.973 1.733 1.683 1.85zm-148.368-11.82c.493.003 2.146-.268 2.558.093.47.412.064 1.574-.139 2.052-.689 1.623-1.853 3.404-3.186 4.535-1.351 1.146-2.911 1.75-4.622 2.039a44.71 44.71 0 0 0-2.97.622c-.55.132-2.219.877-2.708.414-.71-.673 1.191-1.373 1.568-1.543.971-.44 1.95-.858 2.914-1.314.53-.25 5.531-2.352 5.25-2.797-1.996 0-3.994-.01-5.99.007-.414.004-.925-.087-1.322.056-.223.08-.51.459-.695.477-.669.068.269-1.548.418-1.871.726-1.567 1.017-2.897 2.903-2.837 2.006.064 4.014.055 6.021.067zm76.896 2.346l-.527 1.61c.706.317 1.425.795 2.228.505-.197-.758-1.063-1.682-1.7-2.115zm-28.875-4.216c.459-.877 1.978-2.495 3.057-2.186.741.212.834 1.058.642 1.697-.145.483-.373 1.157-.825.742-.277-.255-.117-.623-.559-.68-.467-.06-1.355.686-1.592 1.014.965.59 2.319 1.226 3.377.737.576-.265 2.091-1.422 2.655-.818-.364.794-.46 1.218-1.199 1.587-.751.376-1.524.728-2.273 1.126-1.503.797-2.969 1.883-4.516 2.556-.134-1.728.896-2.156 2.12-2.923-.476-.25-1.12-.459-1.274-1.05-.146-.56.132-1.314.387-1.802zm44.678-1.88c.467-.488 1.094-.42 1.612-.036.712.526.417 1.293.331 2.073-.458-.16-.861-.704-1.379-.563-.706.19-.718 1.141-.739 1.7-.03.8-.045 1.6-.08 2.4-.029.662.057 1.543-.41 2.081-.506-.11-.869-1.483-1.13-1.893-.48-.749-1.071-1.309-1.72-1.907-.036.084-.16.52-.24.554-.107.045-.709-.216-.858-.262-.354-.107-.922-.16-1.151-.471-.234-.317-.154-1.071-.106-1.414.093-.652.192-.953.915-.888 1.946.173 3.245 2.265 4.072 3.778.523-1.502-.358-3.856.883-5.153zm-17.053 5.87c-.48-.798-.977-.577-1.624-.07-1.544 1.21.79 1.784 1.843 1.836.245-.633.13-1.182-.22-1.765z" transform="translate(-1188 -78)"/>
</svg>
